<svg width="314" height="38" viewBox="0 0 314 38" fill="none" xmlns="http://www.w3.org/2000/svg">
<path d="M72.9577 26.3595L74.4137 22.3555L74.4417 23.5315L71.1517 15.4395H73.1257L75.3377 21.1655H74.8897L77.0877 15.4395H78.9917L74.7217 26.3595H72.9577Z" fill="#707372"/>
<path d="M67.5122 23.2099C66.7609 23.2099 66.1332 23.0349 65.6292 22.6849C65.1252 22.3349 64.7449 21.8589 64.4882 21.2569C64.2362 20.6549 64.1102 19.9759 64.1102 19.2199C64.1102 18.4639 64.2362 17.7849 64.4882 17.1829C64.7402 16.5809 65.1112 16.1049 65.6012 15.7549C66.0912 15.4049 66.6955 15.2299 67.4142 15.2299C68.1375 15.2299 68.7675 15.4026 69.3042 15.7479C69.8409 16.0933 70.2562 16.5669 70.5502 17.1689C70.8489 17.7663 70.9982 18.4499 70.9982 19.2199C70.9982 19.9759 70.8512 20.6549 70.5572 21.2569C70.2679 21.8589 69.8619 22.3349 69.3392 22.6849C68.8165 23.0349 68.2075 23.2099 67.5122 23.2099ZM63.7882 22.9999V12.9199H65.7062V17.8199H65.4682V22.9999H63.7882ZM67.2042 21.5159C67.6149 21.5159 67.9509 21.4133 68.2122 21.2079C68.4735 21.0026 68.6672 20.7273 68.7932 20.3819C68.9192 20.0319 68.9822 19.6446 68.9822 19.2199C68.9822 18.7999 68.9169 18.4173 68.7862 18.0719C68.6555 17.7219 68.4525 17.4443 68.1772 17.2389C67.9065 17.0289 67.5589 16.9239 67.1342 16.9239C66.7375 16.9239 66.4155 17.0196 66.1682 17.2109C65.9255 17.4023 65.7482 17.6706 65.6362 18.0159C65.5242 18.3613 65.4682 18.7626 65.4682 19.2199C65.4682 19.6773 65.5242 20.0786 65.6362 20.4239C65.7482 20.7693 65.9302 21.0376 66.1822 21.2289C66.4389 21.4203 66.7795 21.5159 67.2042 21.5159Z" fill="#707372"/>
<path d="M55.3155 23.2099C54.6201 23.2099 54.0111 23.0349 53.4885 22.6849C52.9658 22.3349 52.5575 21.8589 52.2635 21.2569C51.9741 20.6549 51.8295 19.9759 51.8295 19.2199C51.8295 18.4499 51.9765 17.7663 52.2705 17.1689C52.5691 16.5669 52.9868 16.0933 53.5235 15.7479C54.0601 15.4026 54.6901 15.2299 55.4135 15.2299C56.1321 15.2299 56.7365 15.4049 57.2265 15.7549C57.7165 16.1049 58.0875 16.5809 58.3395 17.1829C58.5915 17.7849 58.7175 18.4639 58.7175 19.2199C58.7175 19.9759 58.5891 20.6549 58.3325 21.2569C58.0805 21.8589 57.7025 22.3349 57.1985 22.6849C56.6945 23.0349 56.0668 23.2099 55.3155 23.2099ZM55.6235 21.5159C56.0481 21.5159 56.3865 21.4203 56.6385 21.2289C56.8951 21.0376 57.0795 20.7693 57.1915 20.4239C57.3035 20.0786 57.3595 19.6773 57.3595 19.2199C57.3595 18.7626 57.3035 18.3613 57.1915 18.0159C57.0795 17.6706 56.8998 17.4023 56.6525 17.2109C56.4098 17.0196 56.0901 16.9239 55.6935 16.9239C55.2688 16.9239 54.9188 17.0289 54.6435 17.2389C54.3728 17.4443 54.1721 17.7219 54.0415 18.0719C53.9108 18.4173 53.8455 18.7999 53.8455 19.2199C53.8455 19.6446 53.9085 20.0319 54.0345 20.3819C54.1605 20.7273 54.3541 21.0026 54.6155 21.2079C54.8768 21.4133 55.2128 21.5159 55.6235 21.5159ZM57.3595 22.9999V17.8199H57.1215V12.9199H59.0395V22.9999H57.3595Z" fill="#707372"/>
<path d="M47.2459 23.2095C46.4712 23.2095 45.7876 23.0438 45.1949 22.7125C44.6069 22.3765 44.1449 21.9168 43.8089 21.3335C43.4776 20.7455 43.3119 20.0735 43.3119 19.3175C43.3119 18.4915 43.4752 17.7728 43.8019 17.1615C44.1286 16.5502 44.5789 16.0765 45.1529 15.7405C45.7269 15.3998 46.3872 15.2295 47.1339 15.2295C47.9272 15.2295 48.6016 15.4162 49.1569 15.7895C49.7122 16.1628 50.1229 16.6878 50.3889 17.3645C50.6549 18.0412 50.7482 18.8368 50.6689 19.7515H48.7859V19.0515C48.7859 18.2815 48.6622 17.7285 48.4149 17.3925C48.1722 17.0518 47.7732 16.8815 47.2179 16.8815C46.5692 16.8815 46.0909 17.0798 45.7829 17.4765C45.4796 17.8685 45.3279 18.4495 45.3279 19.2195C45.3279 19.9242 45.4796 20.4702 45.7829 20.8575C46.0909 21.2402 46.5412 21.4315 47.1339 21.4315C47.5072 21.4315 47.8269 21.3498 48.0929 21.1865C48.3589 21.0232 48.5619 20.7875 48.7019 20.4795L50.6059 21.0255C50.3212 21.7162 49.8709 22.2528 49.2549 22.6355C48.6436 23.0182 47.9739 23.2095 47.2459 23.2095ZM44.7399 19.7515V18.3375H49.7519V19.7515H44.7399Z" fill="#707372"/>
<path d="M38.0991 23.0002V15.4402H39.7791V17.2882L39.5971 17.0502C39.6951 16.7889 39.8258 16.5509 39.9891 16.3362C40.1525 16.1216 40.3531 15.9442 40.5911 15.8042C40.7731 15.6922 40.9715 15.6059 41.1861 15.5452C41.4008 15.4799 41.6225 15.4402 41.8511 15.4262C42.0798 15.4076 42.3085 15.4122 42.5371 15.4402V17.2182C42.3271 17.1529 42.0821 17.1319 41.8021 17.1552C41.5268 17.1739 41.2771 17.2369 41.0531 17.3442C40.8291 17.4469 40.6401 17.5846 40.4861 17.7572C40.3321 17.9252 40.2155 18.1259 40.1361 18.3592C40.0568 18.5879 40.0171 18.8469 40.0171 19.1362V23.0002H38.0991Z" fill="#707372"/>
<path d="M33.0955 23.2095C32.3208 23.2095 31.6372 23.0438 31.0445 22.7125C30.4565 22.3765 29.9945 21.9168 29.6585 21.3335C29.3272 20.7455 29.1615 20.0735 29.1615 19.3175C29.1615 18.4915 29.3248 17.7728 29.6515 17.1615C29.9782 16.5502 30.4285 16.0765 31.0025 15.7405C31.5765 15.3998 32.2368 15.2295 32.9835 15.2295C33.7768 15.2295 34.4512 15.4162 35.0065 15.7895C35.5618 16.1628 35.9725 16.6878 36.2385 17.3645C36.5045 18.0412 36.5978 18.8368 36.5185 19.7515H34.6355V19.0515C34.6355 18.2815 34.5118 17.7285 34.2645 17.3925C34.0218 17.0518 33.6228 16.8815 33.0675 16.8815C32.4188 16.8815 31.9405 17.0798 31.6325 17.4765C31.3292 17.8685 31.1775 18.4495 31.1775 19.2195C31.1775 19.9242 31.3292 20.4702 31.6325 20.8575C31.9405 21.2402 32.3908 21.4315 32.9835 21.4315C33.3568 21.4315 33.6765 21.3498 33.9425 21.1865C34.2085 21.0232 34.4115 20.7875 34.5515 20.4795L36.4555 21.0255C36.1708 21.7162 35.7205 22.2528 35.1045 22.6355C34.4932 23.0182 33.8235 23.2095 33.0955 23.2095ZM30.5895 19.7515V18.3375H35.6015V19.7515H30.5895Z" fill="#707372"/>
<path d="M20.0627 22.9998L17.7527 15.4258L19.6147 15.4398L20.9867 19.9478L22.3797 15.4398H23.9617L25.3547 19.9478L26.7267 15.4398H28.5887L26.2787 22.9998H24.8227L23.1707 18.0718L21.5187 22.9998H20.0627Z" fill="#707372"/>
<path d="M13.3507 23.2095C12.59 23.2095 11.9227 23.0392 11.3487 22.6985C10.7747 22.3578 10.3267 21.8888 10.0047 21.2915C9.68735 20.6895 9.52869 19.9988 9.52869 19.2195C9.52869 18.4308 9.69202 17.7378 10.0187 17.1405C10.3454 16.5385 10.7957 16.0695 11.3697 15.7335C11.9437 15.3975 12.604 15.2295 13.3507 15.2295C14.1114 15.2295 14.7787 15.3998 15.3527 15.7405C15.9314 16.0812 16.3817 16.5525 16.7037 17.1545C17.0257 17.7518 17.1867 18.4402 17.1867 19.2195C17.1867 20.0035 17.0234 20.6965 16.6967 21.2985C16.3747 21.8958 15.9244 22.3648 15.3457 22.7055C14.7717 23.0415 14.1067 23.2095 13.3507 23.2095ZM13.3507 21.4315C13.962 21.4315 14.417 21.2262 14.7157 20.8155C15.019 20.4002 15.1707 19.8682 15.1707 19.2195C15.1707 18.5475 15.0167 18.0108 14.7087 17.6095C14.4054 17.2082 13.9527 17.0075 13.3507 17.0075C12.9354 17.0075 12.5947 17.1008 12.3287 17.2875C12.0627 17.4742 11.8644 17.7332 11.7337 18.0645C11.6077 18.3958 11.5447 18.7808 11.5447 19.2195C11.5447 19.8962 11.6964 20.4352 11.9997 20.8365C12.3077 21.2332 12.758 21.4315 13.3507 21.4315Z" fill="#707372"/>
<path d="M0.97998 22.9999V12.9199H5.23598C5.33398 12.9199 5.46465 12.9246 5.62798 12.9339C5.79598 12.9386 5.94531 12.9526 6.07598 12.9759C6.67798 13.0693 7.17031 13.2676 7.55298 13.5709C7.94031 13.8743 8.22498 14.2569 8.40698 14.7189C8.58898 15.1763 8.67998 15.6873 8.67998 16.2519C8.67998 16.8166 8.58665 17.3299 8.39998 17.7919C8.21798 18.2493 7.93331 18.6296 7.54598 18.9329C7.16331 19.2363 6.67331 19.4346 6.07598 19.5279C5.94531 19.5466 5.79598 19.5606 5.62798 19.5699C5.45998 19.5793 5.32931 19.5839 5.23598 19.5839H2.88398V22.9999H0.97998ZM2.88398 17.8059H5.15198C5.24998 17.8059 5.35731 17.8013 5.47398 17.7919C5.59065 17.7826 5.69798 17.7639 5.79598 17.7359C6.05265 17.6659 6.25098 17.5493 6.39098 17.3859C6.53098 17.2179 6.62665 17.0336 6.67798 16.8329C6.73398 16.6276 6.76198 16.4339 6.76198 16.2519C6.76198 16.0699 6.73398 15.8786 6.67798 15.6779C6.62665 15.4726 6.53098 15.2883 6.39098 15.1249C6.25098 14.9569 6.05265 14.8379 5.79598 14.7679C5.69798 14.7399 5.59065 14.7213 5.47398 14.7119C5.35731 14.7026 5.24998 14.6979 5.15198 14.6979H2.88398V17.8059Z" fill="#707372"/>
<g clip-path="url(#clip0_321_294)">
<path d="M231.238 11.4213V13.5504C231.238 13.9506 230.918 14.2657 230.523 14.2487C229.925 14.2231 229.093 14.1976 228.588 14.1891C225.736 14.1891 224.162 15.9094 224.162 19.0349V26.7848C224.162 27.168 223.851 27.4831 223.472 27.4831H220.974C220.595 27.4831 220.284 27.168 220.284 26.7848V11.2169C220.284 10.8336 220.595 10.5185 220.974 10.5185H223.355C223.733 10.5185 224.044 10.8336 224.044 11.2169V12.2048C225.18 11.0125 227.006 10.3652 229.252 10.3652C229.623 10.3652 230.094 10.4163 230.422 10.4674C230.885 10.527 231.238 10.9358 231.238 11.4127V11.4213ZM205.644 17.9703C205.51 17.7915 205.526 17.5445 205.678 17.3912L211.828 11.268C212.106 10.9954 211.912 10.5185 211.525 10.5185H207.941C207.764 10.5185 207.605 10.5867 207.478 10.7059L200.546 17.1443C200.268 17.3997 199.822 17.2039 199.822 16.8206V11.2169C199.822 10.8336 199.511 10.5185 199.132 10.5185H196.633C196.255 10.5185 195.944 10.8336 195.944 11.2169V26.7763C195.944 27.1595 196.255 27.4746 196.633 27.4746H199.132C199.519 27.4746 199.822 27.1595 199.822 26.7677L199.797 23.1568C199.797 22.9609 199.873 22.7736 200.016 22.6373L202.169 20.6104C202.355 20.4401 202.641 20.4571 202.8 20.653L208.008 27.2021C208.143 27.3639 208.337 27.4661 208.547 27.4661H212.139C212.501 27.4661 212.703 27.0488 212.476 26.7592L205.627 17.9618L205.644 17.9703ZM185.233 10.5185H182.734C182.356 10.5185 182.044 10.8336 182.044 11.2169V26.7763C182.044 27.1595 182.356 27.4746 182.734 27.4746H185.233C185.612 27.4746 185.923 27.1595 185.923 26.7763V11.2169C185.923 10.8336 185.612 10.5185 185.233 10.5185ZM274.845 10.5185H259.743C259.364 10.5185 259.053 10.8336 259.053 11.2169V13.4822C259.053 13.8655 259.364 14.1806 259.743 14.1806H264.875C265.111 14.1806 265.304 14.3764 265.304 14.6149V26.7763C265.304 27.1595 265.615 27.4746 265.994 27.4746H268.585C268.964 27.4746 269.275 27.1595 269.275 26.7763V14.6149C269.275 14.3764 269.469 14.1806 269.704 14.1806H274.837C275.215 14.1806 275.526 13.8655 275.526 13.4822V11.2169C275.526 10.8336 275.215 10.5185 274.837 10.5185H274.845ZM253.828 18.9923C253.828 24.0084 250.185 27.6534 245.154 27.6534C240.123 27.6534 236.454 24.0084 236.454 18.9923C236.454 13.9762 240.114 10.3652 245.154 10.3652C250.194 10.3652 253.828 13.9932 253.828 18.9923ZM249.916 18.9923C249.916 15.969 248.006 13.9336 245.154 13.9336C242.302 13.9336 240.367 16.0116 240.367 18.9923C240.367 21.973 242.335 24.0766 245.154 24.0766C247.972 24.0766 249.916 21.9815 249.916 18.9923ZM286.506 10.5185H284.007C283.629 10.5185 283.317 10.8336 283.317 11.2169V26.7763C283.317 27.1595 283.629 27.4746 284.007 27.4746H286.506C286.885 27.4746 287.196 27.1595 287.196 26.7763V11.2169C287.196 10.8336 286.885 10.5185 286.506 10.5185ZM165.058 10.3652C162.803 10.3652 160.775 11.1487 159.387 12.5454C159.202 12.7328 158.916 12.7157 158.748 12.5199C157.561 11.1317 155.744 10.3652 153.556 10.3652C151.546 10.3652 149.829 10.9699 148.651 12.0855V11.2169C148.651 10.8336 148.34 10.5185 147.962 10.5185H145.581C145.202 10.5185 144.891 10.8336 144.891 11.2169V26.7763C144.891 27.1595 145.202 27.4746 145.581 27.4746H148.079C148.458 27.4746 148.769 27.1595 148.769 26.7763V18.7624C148.769 15.7391 150.3 14.0017 152.968 14.0017C155.315 14.0017 156.51 15.3899 156.51 18.1322V26.7763C156.51 27.1595 156.821 27.4746 157.2 27.4746H159.698C160.077 27.4746 160.388 27.1595 160.388 26.7763V18.7624C160.388 15.7391 161.919 14.0017 164.587 14.0017C166.942 14.0017 168.129 15.3899 168.129 18.1322V26.7763C168.129 27.1595 168.44 27.4746 168.819 27.4746H171.317C171.696 27.4746 172.007 27.1595 172.007 26.7763V17.8C172.007 13.082 169.475 10.3738 165.058 10.3738V10.3652ZM313.774 26.7592L306.925 17.9618C306.791 17.783 306.808 17.536 306.959 17.3827L313.109 11.2595C313.387 10.9869 313.194 10.51 312.807 10.51H309.222C309.046 10.51 308.886 10.5781 308.76 10.6974L301.827 17.1357C301.549 17.3912 301.103 17.1954 301.103 16.8121V11.2084C301.103 10.8251 300.792 10.51 300.413 10.51H297.915C297.536 10.51 297.225 10.8251 297.225 11.2084V26.7677C297.225 27.151 297.536 27.4661 297.915 27.4661H300.413C300.801 27.4661 301.103 27.151 301.103 26.7592L301.078 23.1483C301.078 22.9524 301.154 22.7651 301.297 22.6288L303.451 20.6019C303.636 20.4316 303.922 20.4486 304.082 20.653L309.29 27.2021C309.424 27.3639 309.618 27.4661 309.828 27.4661H313.421C313.782 27.4661 313.984 27.0488 313.757 26.7592H313.774Z" fill="#707372"/>
<path d="M131.194 11.7783C131.194 10.2709 130.386 8.88274 129.09 8.15033L115.603 0.52819C114.358 -0.178668 112.844 -0.178668 111.599 0.52819L98.1034 8.15033C96.8077 8.88274 96 10.2709 96 11.7783V26.3243C96 27.8402 96.8161 29.2368 98.1286 29.9692L111.624 37.4807C112.852 38.1705 114.35 38.1705 115.578 37.4807L129.073 29.9692C130.386 29.2368 131.202 27.8402 131.202 26.3243V11.7783H131.194ZM106.121 26.2135C106.121 26.5542 105.76 26.7671 105.465 26.6053L103.21 25.3449C102.739 25.0809 102.453 24.5869 102.453 24.0419V17.1692C102.453 16.8285 102.815 16.6156 103.109 16.7774L105.591 18.1656C105.919 18.3444 106.121 18.6936 106.121 19.0768V26.2135ZM124.749 24.0078C124.749 24.5443 124.463 25.0468 123.992 25.3108L121.737 26.5712C121.442 26.733 121.081 26.5201 121.081 26.1795V17.3906C121.081 17.0499 120.719 16.837 120.424 16.9988L116.26 19.3238C115.788 19.5878 115.502 20.0818 115.502 20.6268V29.6116C115.502 29.8841 115.359 30.1311 115.124 30.2588L114.274 30.7357C113.837 30.9827 113.298 30.9827 112.852 30.7357L112.061 30.2929C111.826 30.1651 111.683 29.9096 111.683 29.6456V20.5672C111.683 20.0307 111.397 19.5282 110.925 19.2642L102.672 14.6483C102.529 14.5717 102.445 14.4184 102.445 14.2566V13.8989C102.445 13.3623 102.731 12.8599 103.202 12.5959L104.38 11.9401C104.817 11.6931 105.356 11.6931 105.802 11.9401L112.936 15.9343C113.374 16.1813 113.912 16.1813 114.358 15.9343L117.564 14.1373C117.867 13.967 117.867 13.5242 117.564 13.3538L110.404 9.35114C110.101 9.18081 110.101 8.73796 110.404 8.56764L112.844 7.20502C113.281 6.95804 113.82 6.95804 114.266 7.20502L123.983 12.6385C124.454 12.9025 124.74 13.3964 124.74 13.9415V23.9993L124.749 24.0078Z" fill="#707372"/>
</g>
<defs>
<clipPath id="clip0_321_294">
<rect width="217.867" height="38" fill="white" transform="translate(96)"/>
</clipPath>
</defs>
</svg>
